# xmcd CD database file
#
# Track frame offsets:
#	150
#	15890
#	32766
#	51198
#	71109
#	88095
#	103895
#	120822
#	139998
#
# Disc length: 2135 seconds
#
# Revision: 1
# Processed by: cddbd v1.5.2PL0 Copyright (c) Steve Scherf et al.
# Submitted via: CDex 1.51
#
DISCID=73085509
DTITLE=Chicharones - Pork Rind Disco EP
DYEAR=2005
DGENRE=Hip-Hop
TTITLE0=Pork Rind Disco
TTITLE1=Red Carpet Treatment
TTITLE2=Guys Like Me
TTITLE3=Can't Find The Time
TTITLE4=Dont Feed A Machine
TTITLE5=Pork Rind Disco (Instrumental)
TTITLE6=Red Carpet Treatment (Instrumental)
TTITLE7=Guys Like Me (Instrumental)
TTITLE8=Pork Rind Electro Remix
EXTD=YEAR: 2005
EXTT0=
EXTT1=
EXTT2=
EXTT3=
EXTT4=
EXTT5=
EXTT6=
EXTT7=
EXTT8=
PLAYORDER=
